<?xml version="1.0" encoding="UTF-8"?>
<svg viewBox="0 0 348 402" version="1.1" xmlns="http://www.w3.org/2000/svg" xmlns:xlink="http://www.w3.org/1999/xlink">
    <title>Logo 2</title>
    <g id="Page-1" stroke="none" stroke-width="1" fill="none" fill-rule="evenodd">
        <g id="Logo-Consistent" transform="translate(0.794919, 1.000000)" fill="#66FCF1" stroke="#66FCF1">
            <polygon id="J" points="153.705081 80.5 130.76502 93.6049224 130.705081 278.5 84.7050808 251.5 84.7050808 189.5 60.7050808 189.5 60.7050808 265.5 153.705081 319.5"></polygon>
            <polygon id="H" points="192.76502 80.3950776 192.705081 319.604922 215.705081 306.395078 215.705081 212.5 262.705081 212.5 262.705081 279.5 286.705081 265.5 286.705081 134.5 262.705081 120.5 262.705081 188.5 215.705081 188.5 215.705081 93.6049224"></polygon>
            <polygon id="Hexagon" points="173.205081 0 0 100 0 300 173.205081 400 173.205081 376.922561 20.0009042 288.44809 20.0009042 111.55351 173.205081 23.093689 326.416531 111.55351 326.416531 288.44809 173.492225 376.922561 173.492225 400 346.410162 300 346.410162 100"></polygon>
        </g>
    </g>
</svg>