<?xml version="1.0" standalone="no"?>
<!DOCTYPE svg PUBLIC "-//W3C//DTD SVG 20010904//EN"
 "http://www.w3.org/TR/2001/REC-SVG-20010904/DTD/svg10.dtd">
<svg version="1.0" xmlns="http://www.w3.org/2000/svg"
 width="804.000000pt" height="804.000000pt" viewBox="0 0 804.000000 804.000000"
 preserveAspectRatio="xMidYMid meet">
<metadata>
Created by potrace 1.14, written by Peter Selinger 2001-2017
</metadata>
<g transform="translate(0.000000,804.000000) scale(0.100000,-0.100000)"
fill="#000000" stroke="none">
<path d="M3861 7940 c-84 -50 -155 -90 -156 -90 -2 0 -59 -33 -126 -73 -117
-69 -188 -109 -269 -153 -19 -11 -37 -22 -40 -25 -3 -3 -12 -9 -20 -12 -8 -4
-31 -17 -50 -28 -36 -22 -407 -237 -469 -271 -19 -11 -104 -60 -190 -110 -86
-50 -176 -102 -201 -117 -25 -14 -54 -31 -65 -38 -11 -7 -27 -16 -35 -20 -8
-4 -86 -49 -173 -100 -87 -50 -167 -95 -178 -98 -10 -4 -19 -10 -19 -15 0 -4
-8 -10 -17 -13 -10 -3 -45 -22 -78 -42 -33 -20 -72 -41 -87 -48 -16 -6 -28
-15 -28 -19 0 -4 -4 -8 -9 -8 -9 0 -259 -143 -278 -160 -7 -5 -15 -10 -18 -10
-5 0 -164 -90 -362 -206 -50 -30 -96 -54 -102 -54 -6 0 -11 -4 -11 -9 0 -5 -8
-11 -17 -15 -10 -3 -31 -14 -48 -24 -16 -10 -50 -30 -75 -44 -25 -14 -61 -35
-80 -46 -19 -12 -52 -31 -72 -42 -21 -11 -39 -24 -39 -28 -1 -4 -2 -905 -3
-2002 -2 -1739 0 -1997 12 -2012 9 -10 19 -18 25 -18 5 0 37 -17 71 -37 33
-21 77 -47 97 -58 38 -21 450 -258 497 -286 29 -18 81 -47 139 -80 21 -12 75
-43 121 -70 45 -27 87 -49 92 -49 6 0 10 -4 10 -10 0 -5 4 -10 10 -10 5 0 55
-27 111 -60 55 -33 103 -60 105 -60 2 0 33 -18 69 -40 36 -22 70 -40 75 -40 6
0 10 -4 10 -10 0 -5 4 -10 9 -10 6 0 59 -28 119 -63 60 -35 115 -67 123 -71 8
-4 23 -12 34 -19 44 -27 493 -287 588 -341 23 -13 114 -65 202 -116 175 -101
207 -120 275 -158 25 -14 57 -33 71 -43 15 -10 37 -23 50 -29 13 -6 38 -19 54
-30 17 -10 42 -25 56 -33 15 -8 122 -69 238 -137 l212 -123 37 21 c77 42 112
62 278 159 94 55 177 103 185 106 8 4 28 16 44 27 17 11 37 23 45 27 18 8 279
159 300 173 8 6 22 13 30 17 8 4 43 24 78 45 34 21 67 38 72 38 6 0 10 4 10 8
0 4 15 15 33 23 40 20 100 52 107 59 8 8 43 29 60 37 8 3 68 37 132 75 64 37
121 68 127 68 6 0 11 3 11 8 0 4 21 18 48 31 26 14 58 32 72 42 26 17 86 51
180 103 30 16 57 33 58 38 2 4 8 8 13 8 8 0 56 27 137 75 9 6 49 28 87 50 39
21 72 43 73 47 2 4 12 8 23 8 10 0 19 5 19 10 0 6 4 10 10 10 5 0 33 15 62 33
30 17 67 40 83 49 17 9 69 39 117 67 49 28 127 74 175 101 49 28 95 55 103 60
22 14 450 261 485 279 16 9 35 21 42 28 7 6 23 15 35 19 12 3 26 11 32 16 6 5
24 17 41 27 l30 17 0 1999 0 1999 -24 22 c-13 12 -44 32 -70 44 -25 13 -57 31
-71 40 -14 9 -45 28 -70 42 -125 69 -165 93 -170 98 -3 4 -20 13 -37 21 -18 8
-33 17 -33 21 0 5 -4 8 -9 8 -5 0 -49 23 -98 51 -48 29 -106 62 -128 74 -62
35 -215 125 -260 152 -22 13 -48 26 -57 30 -10 3 -18 9 -18 14 0 5 -5 9 -11 9
-6 0 -38 16 -72 36 -34 20 -75 45 -92 54 -36 21 -408 236 -450 260 -16 9 -55
32 -85 50 -30 17 -84 48 -120 67 -36 20 -72 42 -81 49 -8 8 -19 14 -22 14 -4
0 -55 29 -114 64 -60 34 -197 114 -306 177 -108 63 -205 119 -215 124 -9 6
-51 29 -92 53 -41 23 -82 47 -90 52 -36 23 -314 180 -318 180 -3 0 -13 6 -21
14 -9 7 -41 27 -71 43 -30 17 -94 53 -142 81 -48 29 -91 52 -97 52 -6 0 -11 5
-11 10 0 20 -29 8 -179 -80z m407 -536 c130 -75 290 -168 354 -205 64 -38 121
-69 127 -69 6 0 11 -4 11 -9 0 -5 12 -14 28 -20 15 -7 45 -22 67 -35 22 -13
134 -78 248 -145 115 -66 210 -121 213 -121 2 0 36 -20 76 -44 152 -92 300
-176 309 -176 5 0 9 -4 9 -10 0 -5 5 -10 11 -10 5 0 60 -29 120 -65 60 -36
114 -65 119 -65 6 0 10 -4 10 -8 0 -4 12 -13 28 -19 30 -13 104 -55 112 -64 3
-3 20 -12 38 -20 17 -8 32 -17 32 -21 0 -5 5 -8 10 -8 6 0 27 -11 48 -23 20
-13 60 -37 87 -52 82 -47 149 -85 165 -95 8 -5 96 -56 195 -113 99 -57 226
-130 282 -162 56 -32 103 -66 105 -74 2 -9 3 -803 3 -1765 l-1 -1749 -94 -55
c-52 -30 -115 -66 -140 -80 -25 -14 -56 -32 -70 -41 -14 -10 -36 -22 -50 -29
-14 -7 -38 -21 -55 -31 -32 -20 -465 -271 -527 -305 -20 -12 -94 -55 -165 -96
-70 -41 -134 -76 -140 -78 -7 -2 -13 -7 -13 -11 0 -4 -16 -13 -35 -21 -19 -8
-35 -17 -35 -22 0 -4 -5 -8 -10 -8 -9 0 -82 -40 -130 -71 -14 -8 -200 -116
-280 -161 -174 -99 -266 -153 -270 -157 -3 -3 -23 -15 -45 -26 -22 -11 -42
-22 -45 -25 -4 -4 -22 -15 -95 -54 -10 -6 -25 -17 -33 -24 -7 -6 -17 -12 -21
-12 -7 0 -298 -166 -351 -200 -42 -27 -194 -110 -201 -110 -4 0 -9 -4 -11 -8
-3 -7 -44 -32 -197 -118 l-38 -22 -139 80 c-76 44 -155 90 -174 101 -19 11
-75 43 -125 71 -49 27 -96 56 -103 63 -7 7 -17 13 -22 13 -5 0 -44 21 -87 46
-43 26 -91 55 -108 64 -16 9 -117 67 -224 129 -106 61 -197 111 -201 111 -5 0
-10 4 -12 8 -1 4 -30 23 -63 41 -98 55 -116 65 -215 123 -52 30 -230 133 -395
228 -165 95 -311 180 -325 188 -14 9 -28 15 -32 14 -5 -1 -8 3 -8 8 0 6 -4 10
-9 10 -5 0 -66 34 -136 75 -69 41 -128 75 -130 75 -2 0 -45 25 -96 55 -50 30
-93 55 -95 55 -4 0 -86 48 -134 79 -14 8 -27 16 -30 16 -3 0 -16 8 -30 16 -14
9 -56 35 -94 57 l-70 41 0 1757 c-1 966 1 1759 4 1764 7 11 438 260 450 260 5
0 10 4 10 8 0 8 71 46 79 42 2 -1 7 2 10 8 5 8 86 56 179 107 20 11 39 23 40
28 2 4 7 7 12 7 4 0 77 40 161 90 85 49 192 111 238 137 141 80 153 87 226
130 39 22 86 50 105 61 19 10 196 112 392 226 197 113 362 206 368 206 5 0 10
3 10 8 0 4 21 18 48 31 26 14 58 32 72 42 14 9 46 28 71 41 77 43 94 53 99 58
5 5 17 12 96 55 27 14 63 35 79 46 17 10 36 22 44 26 8 3 66 37 130 74 64 38
122 68 129 69 7 0 120 -61 250 -136z"/>
<path d="M4401 4792 c-1 -900 -2 -1643 -2 -1649 0 -7 0 -56 0 -108 0 -52 0
-101 -1 -107 0 -7 0 -44 1 -83 0 -38 0 -77 0 -85 -1 -37 0 -330 2 -375 0 -27
1 -67 1 -87 -1 -21 -1 -85 -1 -143 0 -58 0 -111 0 -117 -2 -75 -3 -359 -2
-387 2 -42 0 -42 96 14 33 20 72 41 88 48 15 6 27 15 27 19 0 4 4 8 9 8 5 0
58 28 118 63 60 35 116 66 125 69 10 4 15 22 17 59 1 29 3 55 5 57 2 2 0 17
-4 33 -5 16 -6 29 -2 29 8 0 6 125 -2 146 -3 8 -2 14 2 14 8 0 7 113 -1 135
-4 8 -2 17 3 20 5 3 6 16 2 28 -6 20 -7 54 -2 82 4 26 2 104 -4 113 -3 6 -2
13 3 17 6 3 7 16 3 28 -6 20 -7 54 -2 82 4 26 2 104 -4 113 -3 6 -2 13 3 17 6
3 7 16 3 28 -6 20 -7 54 -2 82 4 26 2 104 -4 113 -3 6 -2 13 4 17 6 4 8 11 5
16 -9 13 -12 90 -4 95 4 2 3 19 -1 38 -4 19 -5 37 -2 40 7 8 6 102 -2 114 -3
6 -2 13 4 17 6 4 8 11 5 16 -9 13 -12 90 -4 95 4 2 3 19 -1 38 -4 19 -5 37 -2
40 7 8 6 102 -2 115 -4 6 -3 11 2 11 5 0 8 10 8 23 -1 12 4 21 10 20 6 -1 51
-2 100 -2 49 0 105 -1 124 -2 19 -1 42 -1 50 0 51 2 275 -1 278 -4 2 -2 14 0
26 4 11 4 32 5 46 1 14 -4 37 -3 52 1 15 4 30 4 33 -1 3 -5 16 -5 28 -1 12 5
33 5 47 1 14 -3 36 -4 50 0 14 3 35 4 47 2 l21 -4 1 -666 c1 -366 3 -667 6
-670 2 -2 90 46 195 107 104 61 195 111 200 111 6 0 10 4 10 9 0 5 20 18 44
30 l45 20 3 87 c2 47 1 87 -2 89 -3 2 -3 110 0 240 3 130 3 238 0 240 -3 2 -3
110 0 240 3 130 3 238 0 240 -3 2 -3 182 0 400 3 218 3 398 0 400 -3 2 -3 110
0 240 3 130 3 238 1 240 -2 2 -3 53 -2 112 l2 109 -102 59 c-56 33 -118 69
-138 80 -20 11 -76 44 -124 73 -48 28 -90 52 -94 52 -4 0 -15 7 -25 17 -17 15
-18 14 -18 -28 -1 -24 -1 -333 -1 -686 l0 -642 -460 -1 -459 0 2 38 c0 21 -2
44 -6 50 -3 6 -2 13 4 17 6 4 8 11 5 16 -9 13 -12 90 -4 95 4 2 3 19 -1 38 -4
19 -5 37 -2 40 7 8 6 102 -2 114 -3 6 -2 13 4 17 6 4 8 11 5 16 -9 13 -12 90
-4 95 4 2 3 19 -1 38 -4 19 -5 37 -2 40 7 8 6 102 -2 114 -3 6 -2 13 4 17 6 4
8 11 5 16 -9 13 -12 90 -4 95 4 2 3 19 -1 38 -4 19 -5 37 -2 40 7 8 6 102 -2
114 -3 6 -2 13 4 17 6 4 8 11 5 16 -9 13 -12 90 -4 95 4 2 3 19 -1 38 -4 19
-5 37 -2 40 7 8 6 102 -2 114 -3 6 -2 13 4 17 6 4 8 11 5 16 -9 13 -12 90 -4
95 4 2 3 19 -1 38 -4 19 -5 37 -2 40 7 8 6 102 -2 114 -3 6 -2 13 3 17 6 3 7
16 3 28 -6 20 -7 56 -2 82 5 24 -3 71 -13 82 -10 10 -80 51 -372 219 -22 12
-52 30 -66 38 l-27 15 -1 -1637z"/>
<path d="M3560 6383 c-36 -20 -67 -39 -70 -42 -5 -6 -99 -57 -137 -76 -13 -5
-23 -13 -23 -17 0 -5 -6 -8 -14 -8 -8 0 -21 -6 -28 -12 -7 -7 -26 -20 -43 -28
-16 -8 -42 -22 -57 -32 l-26 -18 0 -716 c0 -393 -2 -717 -5 -720 -3 -3 -4 -11
-2 -17 11 -38 15 -68 7 -63 -4 2 -6 -10 -5 -27 2 -18 4 -54 4 -82 -1 -27 -1
-57 -1 -65 0 -8 0 -31 -1 -50 -1 -19 -1 -44 0 -55 0 -11 1 -42 1 -70 0 -27 0
-57 0 -65 0 -8 0 -31 -1 -50 -1 -19 -1 -43 0 -52 0 -10 2 -37 4 -60 1 -24 0
-52 -4 -63 -3 -11 -3 -31 1 -45 4 -14 2 -31 -3 -37 -6 -9 -6 -13 1 -13 8 0 8
-8 3 -22 -4 -13 -5 -34 -2 -48 4 -14 6 -34 5 -45 -2 -11 -3 -31 -4 -45 0 -14
-1 -38 -1 -55 -1 -16 -1 -39 -1 -50 1 -11 1 -54 1 -95 0 -41 0 -81 0 -87 0
-15 0 -137 0 -155 0 -7 1 -44 2 -81 1 -37 -1 -70 -4 -73 -3 -3 -1 -19 3 -35 5
-17 5 -29 0 -29 -6 0 -6 -10 -1 -22 4 -13 5 -34 1 -48 -4 -14 -4 -34 0 -45 6
-21 4 -94 -4 -102 -2 -3 0 -18 4 -34 6 -19 5 -29 -2 -29 -7 0 -6 -5 1 -14 7
-8 8 -17 3 -20 -5 -3 -6 -27 -2 -53 3 -27 3 -60 0 -73 -4 -14 -3 -39 1 -57 4
-18 4 -35 1 -38 -4 -3 -5 -22 -3 -41 l3 -36 -44 25 c-51 29 -256 149 -313 184
-22 13 -48 26 -57 30 -10 3 -18 9 -18 14 0 5 -4 9 -9 9 -5 0 -42 20 -83 44
-40 25 -97 57 -125 73 -29 15 -53 31 -53 35 0 4 -5 8 -11 8 -6 0 -51 24 -99
53 l-90 52 0 623 0 622 -52 1 c-29 1 -57 1 -61 0 -5 -1 -34 -1 -65 -1 -31 0
-66 1 -77 0 -11 0 -40 1 -65 1 -25 0 -51 1 -57 0 -7 0 -38 -1 -69 -1 l-55 -1
2 -34 c2 -19 1 -37 -3 -40 -3 -3 -2 -22 2 -41 4 -18 5 -34 1 -34 -7 0 -5 -119
3 -127 3 -3 1 -13 -4 -22 -5 -10 -5 -23 0 -30 4 -8 4 -27 0 -42 -5 -16 -5 -29
0 -29 5 0 5 -13 0 -30 -5 -16 -6 -30 -2 -30 8 0 7 -88 -1 -96 -2 -3 -1 -21 3
-40 4 -18 4 -34 0 -34 -4 0 -4 -18 0 -40 4 -22 4 -43 0 -45 -4 -3 -4 -21 0
-40 4 -19 5 -35 1 -35 -7 0 -5 -119 3 -127 3 -3 1 -13 -4 -22 -5 -10 -5 -23 0
-30 4 -8 4 -27 0 -42 -5 -16 -5 -29 0 -29 5 0 5 -13 0 -30 -5 -16 -6 -30 -2
-30 8 0 7 -88 -1 -96 -2 -3 -1 -21 3 -40 4 -18 5 -34 1 -34 -7 0 -5 -105 3
-126 3 -7 1 -16 -4 -19 -6 -3 -6 -15 0 -29 5 -13 5 -27 1 -32 -10 -10 6 -74
17 -74 5 0 125 -68 268 -151 142 -84 273 -160 290 -170 17 -9 42 -23 55 -31
13 -7 26 -15 29 -18 5 -5 32 -20 105 -60 17 -8 41 -23 55 -32 14 -8 108 -64
210 -122 102 -59 192 -112 200 -117 21 -13 355 -206 404 -233 23 -13 85 -49
139 -81 54 -31 101 -55 103 -52 3 3 7 3912 4 4740 0 31 -3 57 -7 56 -5 0 -37
-16 -73 -36z"/>
</g>
</svg>
